/* XPM */
static char * R_xpm[] = {
"42 32 954 2",
"  	c #FFFFFF",
". 	c #FEFEFE",
"+ 	c #FDFDFB",
"@ 	c #FFFFFD",
"# 	c #FEFEFC",
"$ 	c #FCFCFA",
"% 	c #F8FAF6",
"& 	c #F5F7F2",
"* 	c #E3E5E0",
"= 	c #C7C9C4",
"- 	c #B6B8B3",
"; 	c #A7A9A4",
"> 	c #9B9D98",
", 	c #989A94",
"' 	c #959691",
") 	c #989994",
"! 	c #A1A29D",
"~ 	c #AEB0AA",
"{ 	c #C2C3BE",
"] 	c #DCDDD8",
"^ 	c #F2F2F0",
"/ 	c #F8F8F6",
"( 	c #FBFAFA",
"_ 	c #FEFCFD",
": 	c #FEFCFE",
"< 	c #FDFBFE",
"[ 	c #FDFCFE",
"} 	c #FCFEFE",
"| 	c #FDFDFE",
"1 	c #FDFDFD",
"2 	c #FFFEFF",
"3 	c #FFFDFF",
"4 	c #FCFDFA",
"5 	c #FDFEFC",
"6 	c #F0F1EF",
"7 	c #E1E2E0",
"8 	c #C2C3C0",
"9 	c #9E9F9C",
"0 	c #858782",
"a 	c #7E807B",
"b 	c #82847F",
"c 	c #868883",
"d 	c #878B83",
"e 	c #83877F",
"f 	c #81857D",
"g 	c #7E817A",
"h 	c #7A7E76",
"i 	c #747770",
"j 	c #6D7069",
"k 	c #6E6F6A",
"l 	c #8A8C87",
"m 	c #B2B2AF",
"n 	c #D8D9D7",
"o 	c #ECEDEC",
"p 	c #FEFFFE",
"q 	c #FDFEFF",
"r 	c #FCFDFD",
"s 	c #FEFFFC",
"t 	c #E9EAE7",
"u 	c #C6C8C5",
"v 	c #A5A7A3",
"w 	c #898B87",
"x 	c #90928D",
"y 	c #8E908B",
"z 	c #92948F",
"A 	c #939590",
"B 	c #949692",
"C 	c #969C92",
"D 	c #959A91",
"E 	c #93988F",
"F 	c #92978E",
"G 	c #90958C",
"H 	c #8E938A",
"I 	c #8A8F86",
"J 	c #848882",
"K 	c #797D76",
"L 	c #6D716B",
"M 	c #696D68",
"N 	c #898D88",
"O 	c #B0B3AE",
"P 	c #DFE1DE",
"Q 	c #FBFCFB",
"R 	c #F9F9F8",
"S 	c #C2C4BF",
"T 	c #9EA09B",
"U 	c #8F918C",
"V 	c #9A9B96",
"W 	c #989A95",
"X 	c #888A85",
"Y 	c #80827D",
"Z 	c #7F817C",
"` 	c #979994",
" .	c #9C9E99",
"..	c #979894",
"+.	c #8D938A",
"@.	c #8A9086",
"#.	c #858B81",
"$.	c #838980",
"%.	c #81877D",
"&.	c #80867D",
"*.	c #82897F",
"=.	c #828981",
"-.	c #848B83",
";.	c #818880",
">.	c #737A72",
",.	c #697068",
"'.	c #757B74",
").	c #A4A7A2",
"!.	c #F3F5F2",
"~.	c #FFFFFE",
"{.	c #FDFEFD",
"].	c #ECECEC",
"^.	c #9E9F9E",
"/.	c #90958F",
"(.	c #9EA29C",
"_.	c #9EA29D",
":.	c #7A7F79",
"<.	c #6D716C",
"[.	c #7A7E79",
"}.	c #929590",
"|.	c #ADAFAA",
"1.	c #B2B4AF",
"2.	c #A1A39E",
"3.	c #7D7F7A",
"4.	c #72746F",
"5.	c #686B65",
"6.	c #5B5F59",
"7.	c #565A54",
"8.	c #535751",
"9.	c #535851",
"0.	c #595D56",
"a.	c #5E625C",
"b.	c #646963",
"c.	c #686D67",
"d.	c #6E736C",
"e.	c #757A73",
"f.	c #7D827B",
"g.	c #7E857B",
"h.	c #737970",
"i.	c #656963",
"j.	c #6E736D",
"k.	c #D9DBD8",
"l.	c #FDFEFE",
"m.	c #FBFCFC",
"n.	c #D8D8D8",
"o.	c #909090",
"p.	c #9C9D9B",
"q.	c #AAB0A8",
"r.	c #878C85",
"s.	c #676C65",
"t.	c #787D76",
"u.	c #9CA19A",
"v.	c #BFC5BD",
"w.	c #BFC2BC",
"x.	c #A8AAA5",
"y.	c #666863",
"z.	c #4E504B",
"A.	c #41433E",
"B.	c #373934",
"C.	c #3E3F3B",
"D.	c #5E605C",
"E.	c #757773",
"F.	c #868884",
"G.	c #8D8F8B",
"H.	c #80827E",
"I.	c #6D706D",
"J.	c #555954",
"K.	c #50534E",
"L.	c #595C56",
"M.	c #62665F",
"N.	c #696D66",
"O.	c #7D827A",
"P.	c #696E67",
"Q.	c #555853",
"R.	c #B7B9B6",
"S.	c #FBFCFD",
"T.	c #D0D1CF",
"U.	c #929391",
"V.	c #A3A4A3",
"W.	c #ACAEAB",
"X.	c #747972",
"Y.	c #6D716A",
"Z.	c #959A93",
"`.	c #C4C8C2",
" +	c #CFD3CC",
".+	c #ABB0A9",
"++	c #838681",
"@+	c #50534C",
"#+	c #40433D",
"$+	c #474945",
"%+	c #727470",
"&+	c #B4B5B1",
"*+	c #EAEBE7",
"=+	c #C6C8C3",
"-+	c #949791",
";+	c #70736B",
">+	c #656960",
",+	c #686D64",
"'+	c #6D736C",
")+	c #545753",
"!+	c #A9ABAA",
"~+	c #FAFBFB",
"{+	c #FCFCFC",
"]+	c #D7D9D5",
"^+	c #B0B6AC",
"/+	c #A3A9A1",
"(+	c #676D65",
"_+	c #797A76",
":+	c #B5B7B2",
"<+	c #D9DBD6",
"[+	c #CACCC7",
"}+	c #545650",
"|+	c #393B39",
"1+	c #61665B",
"2+	c #A6ADA4",
"3+	c #DEE3EB",
"4+	c #F3F8FB",
"5+	c #EEF2F1",
"6+	c #EBECF1",
"7+	c #E9ECEF",
"8+	c #E7ECF0",
"9+	c #E5ECF0",
"0+	c #E7ECEF",
"a+	c #EAEBEF",
"b+	c #EBEAEE",
"c+	c #E7EBEE",
"d+	c #E8EBEE",
"e+	c #E9EDF0",
"f+	c #EFF2F6",
"g+	c #FDFFFF",
"h+	c #C9CDC5",
"i+	c #93968D",
"j+	c #6A6F67",
"k+	c #6E746B",
"l+	c #6D726A",
"m+	c #565B54",
"n+	c #B4B7B2",
"o+	c #FEFEFD",
"p+	c #FEFFFF",
"q+	c #F0F0F0",
"r+	c #A0A39E",
"s+	c #B4B7B0",
"t+	c #A2A79F",
"u+	c #626760",
"v+	c #C3C5C0",
"w+	c #E1E3DE",
"x+	c #7A7C77",
"y+	c #383A35",
"z+	c #484A45",
"A+	c #B2B2B2",
"B+	c #F3F5F3",
"C+	c #AFB5CB",
"D+	c #A2AABF",
"E+	c #A1AAB5",
"F+	c #A3AABF",
"G+	c #A5A8C7",
"H+	c #A3A9C7",
"I+	c #A2AAC7",
"J+	c #A0AAC8",
"K+	c #A1AAC8",
"L+	c #A3A9C9",
"M+	c #A4A9C8",
"N+	c #A1AAC1",
"O+	c #A2AAC3",
"P+	c #A3AAC4",
"Q+	c #9EA4BC",
"R+	c #999FB5",
"S+	c #A7ACBC",
"T+	c #DCE1EA",
"U+	c #F9FDFD",
"V+	c #D2D6D4",
"W+	c #8B918A",
"X+	c #656A63",
"Y+	c #686C64",
"Z+	c #5D6058",
"`+	c #DEDEDB",
" @	c #FAFCFB",
".@	c #C3C5C3",
"+@	c #A2A49F",
"@@	c #B3B6AF",
"#@	c #646861",
"$@	c #787C76",
"%@	c #C2C5C0",
"&@	c #E8EAE5",
"*@	c #71736E",
"=@	c #2A2C29",
"-@	c #5C5E5A",
";@	c #E8EAE7",
">@	c #FEFEFF",
",@	c #FBFFFF",
"'@	c #969CBB",
")@	c #99A4C4",
"!@	c #5F6E83",
"~@	c #5A688C",
"{@	c #5E6B7F",
"]@	c #5E6B7E",
"^@	c #5C6C7E",
"/@	c #5B6D7E",
"(@	c #5B6C7E",
"_@	c #5B6C7F",
":@	c #5C6C81",
"<@	c #5B6B84",
"[@	c #5C6B85",
"}@	c #5C6A84",
"|@	c #606C85",
"1@	c #768198",
"2@	c #8792A5",
"3@	c #717A8A",
"4@	c #A4AAB6",
"5@	c #F8FDFF",
"6@	c #F0F4F3",
"7@	c #B3B5AF",
"8@	c #6C6F67",
"9@	c #595D53",
"0@	c #888985",
"a@	c #F7F7F5",
"b@	c #F5F8F7",
"c@	c #959895",
"d@	c #B8BBB4",
"e@	c #7C7F78",
"f@	c #A5A7A2",
"g@	c #EEF0ED",
"h@	c #D5D7D2",
"i@	c #30322F",
"j@	c #545653",
"k@	c #FCFEFD",
"l@	c #FFFEF9",
"m@	c #959DBA",
"n@	c #8A98B6",
"o@	c #5C6F84",
"p@	c #7A8CB1",
"q@	c #7C8BB2",
"r@	c #7D8BAF",
"s@	c #7C8BAD",
"t@	c #7D8CAC",
"u@	c #7C8CAC",
"v@	c #7B8CAF",
"w@	c #7B8CB0",
"x@	c #798CA3",
"y@	c #7C8DA7",
"z@	c #7B8CA8",
"A@	c #7585A2",
"B@	c #5E6E8A",
"C@	c #475870",
"D@	c #6A7991",
"E@	c #565F77",
"F@	c #A1A8B4",
"G@	c #F9FBFE",
"H@	c #F8F9F5",
"I@	c #BCBEB6",
"J@	c #6F736A",
"K@	c #42433E",
"L@	c #E9E9E6",
"M@	c #D2D7D4",
"N@	c #969B96",
"O@	c #A3A8A1",
"P@	c #676B63",
"Q@	c #858781",
"R@	c #DFE0DD",
"S@	c #ECEDEA",
"T@	c #ABADA7",
"U@	c #454742",
"V@	c #343633",
"W@	c #F8FAF8",
"X@	c #F9FBFA",
"Y@	c #FCFDFE",
"Z@	c #FFFFF7",
"`@	c #FDFFFE",
" #	c #959EB8",
".#	c #8D9AB7",
"+#	c #63768C",
"@#	c #8799BE",
"##	c #8897C1",
"$#	c #919EC4",
"%#	c #B5C2E2",
"&#	c #A3AFCB",
"*#	c #A3AEC9",
"=#	c #A2AFCB",
"-#	c #A2AECE",
";#	c #A3ADD0",
">#	c #9AA5CB",
",#	c #919EC8",
"'#	c #8996C3",
")#	c #8797C3",
"!#	c #8798C5",
"~#	c #64769E",
"{#	c #626F8C",
"]#	c #3B4356",
"^#	c #DBDDE1",
"/#	c #F6F7F2",
"(#	c #A8AAA6",
"_#	c #4E4F4A",
":#	c #A6A6A2",
"<#	c #B5BAB6",
"[#	c #9FA49F",
"}#	c #8F948D",
"|#	c #63675F",
"1#	c #A6A7A2",
"2#	c #F4F4F2",
"3#	c #D6D6D5",
"4#	c #80837C",
"5#	c #20221D",
"6#	c #B8BAB7",
"7#	c #FBFDFC",
"8#	c #FAFBFD",
"9#	c #FEFDFF",
"0#	c #FFFEFB",
"a#	c #969DBC",
"b#	c #8C98BA",
"c#	c #64748E",
"d#	c #8997C0",
"e#	c #8493BF",
"f#	c #A3B0D8",
"g#	c #586080",
"h#	c #363B55",
"i#	c #42465D",
"j#	c #41455D",
"k#	c #40455F",
"l#	c #40465C",
"m#	c #4A516B",
"n#	c #6A7594",
"o#	c #7886AA",
"p#	c #8596BD",
"q#	c #8296BE",
"r#	c #8297BC",
"s#	c #7281A0",
"t#	c #464F64",
"u#	c #81828C",
"v#	c #D9DADA",
"w#	c #7D7E7A",
"x#	c #6D6E69",
"y#	c #A5A9A4",
"z#	c #989C95",
"A#	c #80847D",
"B#	c #6B6F68",
"C#	c #BEC1BC",
"D#	c #F2F3F2",
"E#	c #C7C7C7",
"F#	c #5B5F58",
"G#	c #40423D",
"H#	c #EAECE8",
"I#	c #FEFDFE",
"J#	c #FFFEFD",
"K#	c #FCFFFE",
"L#	c #979DBE",
"M#	c #8D98BA",
"N#	c #64748F",
"O#	c #8996C1",
"P#	c #8397B8",
"Q#	c #8495AD",
"R#	c #363E4B",
"S#	c #76797C",
"T#	c #B8BAB8",
"U#	c #B4B6B4",
"V#	c #B2B6B7",
"W#	c #B4B7BA",
"X#	c #A2A7AF",
"Y#	c #6E7589",
"Z#	c #7D88A5",
"`#	c #687899",
" $	c #869ABB",
".$	c #869ABE",
"+$	c #8392B8",
"@$	c #5C657E",
"#$	c #444751",
"$$	c #FEFDFD",
"%$	c #FCFDFF",
"&$	c #A2A3A0",
"*$	c #50524D",
"=$	c #939790",
"-$	c #6F746D",
";$	c #C6CAC5",
">$	c #EFF1EF",
",$	c #BFBFBF",
"'$	c #484C44",
")$	c #6B6E68",
"!$	c #F1F2EE",
"~$	c #FCFFFC",
"{$	c #969DBD",
"]$	c #8C99B7",
"^$	c #8997C2",
"/$	c #8298BD",
"($	c #8191AE",
"_$	c #414755",
":$	c #AFAEB1",
"<$	c #AEB4C5",
"[$	c #9CA5C4",
"}$	c #526184",
"|$	c #8799BD",
"1$	c #8597BF",
"2$	c #8B9AC4",
"3$	c #636E88",
"4$	c #272C36",
"5$	c #B9BAB7",
"6$	c #4D4F4A",
"7$	c #A8A9A4",
"8$	c #8E918B",
"9$	c #727770",
"0$	c #C0C4BF",
"a$	c #EEF0EE",
"b$	c #BDBEBD",
"c$	c #4C5049",
"d$	c #747570",
"e$	c #F2F4F0",
"f$	c #8897C2",
"g$	c #8497BB",
"h$	c #8290AE",
"i$	c #414656",
"j$	c #ABACB0",
"k$	c #FCFCF9",
"l$	c #BDC3D0",
"m$	c #AEBAD2",
"n$	c #4A5A78",
"o$	c #8499B8",
"p$	c #8297BB",
"q$	c #94A4CB",
"r$	c #5F6883",
"s$	c #2A2E39",
"t$	c #FFFDFD",
"u$	c #BCBEBA",
"v$	c #5B5D58",
"w$	c #C2C2C0",
"x$	c #777B74",
"y$	c #ABAEA9",
"z$	c #ECEEEA",
"A$	c #C3C3C1",
"B$	c #656961",
"C$	c #61635D",
"D$	c #8696BA",
"E$	c #8390AE",
"F$	c #40475A",
"G$	c #A7A9B1",
"H$	c #F8FBFC",
"I$	c #F7FBFC",
"J$	c #F2F7F9",
"K$	c #ADB5C4",
"L$	c #B7C3DD",
"M$	c #40506F",
"N$	c #889DBD",
"O$	c #8599BB",
"P$	c #9BAACB",
"Q$	c #454E64",
"R$	c #545660",
"S$	c #A5A6A2",
"T$	c #81837F",
"U$	c #E6E6E5",
"V$	c #7D7F7B",
"W$	c #7D827C",
"X$	c #8D918A",
"Y$	c #DFE0DB",
"Z$	c #D1D2CF",
"`$	c #868A83",
" %	c #3F423C",
".%	c #DADCD8",
"+%	c #FCFBFC",
"@%	c #FBFBFC",
"#%	c #8896BD",
"$%	c #7B88A9",
"%%	c #525A73",
"&%	c #868C9C",
"*%	c #B4BAC4",
"=%	c #B1B8C4",
"-%	c #B0B8C4",
";%	c #B2B8C7",
">%	c #A8AEC4",
",%	c #ADB6D0",
"'%	c #65718E",
")%	c #6C7A9D",
"!%	c #899ABD",
"~%	c #A0B0D1",
"{%	c #8A97AE",
"]%	c #171E2D",
"^%	c #B1B1B7",
"/%	c #FFFDFC",
"(%	c #F1F0F0",
"_%	c #717271",
":%	c #C9CAC8",
"<%	c #FAFAFA",
"[%	c #9A9C9A",
"}%	c #7D817B",
"|%	c #70756E",
"1%	c #B3B5B0",
"2%	c #DDDED9",
"3%	c #ADB1AA",
"4%	c #555752",
"5%	c #FDFEFB",
"6%	c #FBFBFB",
"7%	c #FDFDFC",
"8%	c #8695BE",
"9%	c #7B88AD",
"0%	c #606C8A",
"a%	c #6E7993",
"b%	c #707B93",
"c%	c #6F7B94",
"d%	c #6F7B95",
"e%	c #717B98",
"f%	c #7A84A0",
"g%	c #727E9A",
"h%	c #6D7896",
"i%	c #A6B2D0",
"j%	c #AAB6D5",
"k%	c #939FB7",
"l%	c #2E3741",
"m%	c #4F5259",
"n%	c #F8F7F9",
"o%	c #FEFCFA",
"p%	c #C1C2C2",
"q%	c #6B6C6A",
"r%	c #F5F5F3",
"s%	c #D4D7D5",
"t%	c #7B7F79",
"u%	c #7B8079",
"v%	c #71756E",
"w%	c #898C86",
"x%	c #C8CCC5",
"y%	c #4F514D",
"z%	c #A8A9A7",
"A%	c #FDFCFD",
"B%	c #8595C0",
"C%	c #8494BB",
"D%	c #6E7EA0",
"E%	c #6A7998",
"F%	c #6A7996",
"G%	c #6A7997",
"H%	c #6B7A99",
"I%	c #6B7B97",
"J%	c #74839D",
"K%	c #909FB7",
"L%	c #8C99B0",
"M%	c #7E899F",
"N%	c #555E76",
"O%	c #192132",
"P%	c #54595A",
"Q%	c #E1E2E1",
"R%	c #FDFBF9",
"S%	c #E3E4E1",
"T%	c #6B7171",
"U%	c #B5B7B5",
"V%	c #FCFCFB",
"W%	c #F8FAF9",
"X%	c #A9ABA9",
"Y%	c #747873",
"Z%	c #93988E",
"`%	c #BDBFB9",
" &	c #B7B9B4",
".&	c #8B8D89",
"+&	c #5A5C59",
"@&	c #A7A8A7",
"#&	c #FCFDFB",
"$&	c #FAFFFC",
"%&	c #959DBE",
"&&	c #8B99B9",
"*&	c #64758F",
"=&	c #8798BF",
"-&	c #8496C3",
";&	c #8999C2",
">&	c #AFBBD7",
",&	c #ABB8D6",
"'&	c #A3B2D6",
")&	c #8FA2CB",
"!&	c #8997B9",
"~&	c #97A4C2",
"{&	c #636C84",
"]&	c #1D2333",
"^&	c #1F242C",
"/&	c #494C50",
"(&	c #AFB0B1",
"_&	c #F3F2F3",
":&	c #E6E8E5",
"<&	c #818381",
"[&	c #7E8180",
"}&	c #F4F5F5",
"|&	c #F0F2F0",
"1&	c #8F918D",
"2&	c #71766F",
"3&	c #777C75",
"4&	c #7F847C",
"5&	c #949790",
"6&	c #AAACA6",
"7&	c #91938E",
"8&	c #676965",
"9&	c #989A97",
"0&	c #F5F6F3",
"a&	c #FAFFFB",
"b&	c #969EBF",
"c&	c #8294BD",
"d&	c #A7B7D9",
"e&	c #6E7B93",
"f&	c #434E5F",
"g&	c #495366",
"h&	c #515D75",
"i&	c #73819F",
"j&	c #7E8DAF",
"k&	c #8390B0",
"l&	c #545E7A",
"m&	c #5F677C",
"n&	c #ACB2BD",
"o&	c #ECF1F5",
"p&	c #FBFEFE",
"q&	c #FCFBFB",
"r&	c #D1D3D0",
"s&	c #858784",
"t&	c #5B5D5B",
"u&	c #E4E5E6",
"v&	c #F0F2EF",
"w&	c #878B86",
"x&	c #6C7069",
"y&	c #767A73",
"z&	c #81847A",
"A&	c #8E9189",
"B&	c #A5A8A0",
"C&	c #A0A39C",
"D&	c #8F928C",
"E&	c #6F726B",
"F&	c #7C7D78",
"G&	c #CDD0CE",
"H&	c #EBF3EC",
"I&	c #8B9AB9",
"J&	c #64758E",
"K&	c #8698C0",
"L&	c #8899BD",
"M&	c #8998B4",
"N&	c #30394A",
"O&	c #484D56",
"P&	c #75797E",
"Q&	c #6A6F78",
"R&	c #595F6C",
"S&	c #7181A2",
"T&	c #6A7898",
"U&	c #6B7797",
"V&	c #808BA6",
"W&	c #6F798F",
"X&	c #656F7F",
"Y&	c #ABB2B9",
"Z&	c #E0E1E0",
"`&	c #A6A8A4",
" *	c #70716C",
".*	c #535550",
"+*	c #E0E1DF",
"@*	c #F6F8F5",
"#*	c #9EA09C",
"$*	c #6A6D68",
"%*	c #6A6D64",
"&*	c #7A7D75",
"**	c #868980",
"=*	c #979A91",
"-*	c #9B9E95",
";*	c #91948B",
">*	c #80827B",
",*	c #696B69",
"'*	c #899287",
")*	c #848DAC",
"!*	c #8C9BBA",
"~*	c #8595BD",
"{*	c #8592B0",
"]*	c #424759",
"^*	c #B4B5BA",
"/*	c #C6C6CA",
"(*	c #667390",
"_*	c #7886A4",
":*	c #677698",
"<*	c #586789",
"[*	c #667492",
"}*	c #697792",
"|*	c #4F596B",
"1*	c #5F6567",
"2*	c #565A59",
"3*	c #6F706B",
"4*	c #F0F0EC",
"5*	c #FCFCFD",
"6*	c #FBFDFB",
"7*	c #C8CAC8",
"8*	c #81837C",
"9*	c #5C5F58",
"0*	c #696C65",
"a*	c #85887F",
"b*	c #90938A",
"c*	c #93948B",
"d*	c #8D908B",
"e*	c #7F887C",
"f*	c #7D85A4",
"g*	c #8D9CBA",
"h*	c #8795C3",
"i*	c #8691B4",
"j*	c #3D4256",
"k*	c #8F9097",
"l*	c #DCDADA",
"m*	c #D5D4D4",
"n*	c #D0D0D0",
"o*	c #788396",
"p*	c #727E97",
"q*	c #7282A2",
"r*	c #8596BB",
"s*	c #7E8EB3",
"t*	c #69789B",
"u*	c #56637C",
"v*	c #3E4851",
"w*	c #A4A9AC",
"x*	c #FAFAF9",
"y*	c #FFFEFE",
"z*	c #EEF1ED",
"A*	c #BFC1BD",
"B*	c #6C6E6A",
"C*	c #50544D",
"D*	c #61645D",
"E*	c #7A7D73",
"F*	c #838680",
"G*	c #879083",
"H*	c #8089A7",
"I*	c #8698C1",
"J*	c #8694C1",
"K*	c #8691B3",
"L*	c #394051",
"M*	c #636669",
"N*	c #999B97",
"O*	c #969A94",
"P*	c #898F99",
"Q*	c #717C8D",
"R*	c #6C7C98",
"S*	c #7C8FB2",
"T*	c #8497BF",
"U*	c #8493B8",
"V*	c #657393",
"W*	c #455164",
"X*	c #ADB2BC",
"Y*	c #FFFFFC",
"Z*	c #D0D2CE",
"`*	c #7E817B",
" =	c #52554C",
".=	c #5A5D57",
"+=	c #5E695A",
"@=	c #79819F",
"#=	c #8D9DBA",
"$=	c #647590",
"%=	c #8897BD",
"&=	c #848FAC",
"*=	c #38414D",
"==	c #545A57",
"-=	c #797F75",
";=	c #6D776A",
">=	c #5F6A5F",
",=	c #505256",
"'=	c #505965",
")=	c #7C8BA4",
"!=	c #63769A",
"~=	c #8796BC",
"{=	c #7785A9",
"]=	c #5B6783",
"^=	c #4A5061",
"/=	c #F0EFF4",
"(=	c #FEFEFB",
"_=	c #F7F7F7",
":=	c #BFBFBC",
"<=	c #8D9383",
"[=	c #5C6761",
"}=	c #738095",
"|=	c #8C9DB8",
"1=	c #61778B",
"2=	c #8297C2",
"3=	c #8090B1",
"4=	c #353E4C",
"5=	c #343735",
"6=	c #4C4C44",
"7=	c #474740",
"8=	c #4E4F4B",
"9=	c #7D7D7C",
"0=	c #9A9CA4",
"a=	c #7E8499",
"b=	c #727C9C",
"c=	c #798AAF",
"d=	c #8297BD",
"e=	c #8096B8",
"f=	c #6B7E97",
"g=	c #485568",
"h=	c #818791",
"i=	c #FDFDF8",
"j=	c #97A0BE",
"k=	c #8A98B9",
"l=	c #62748F",
"m=	c #8696C1",
"n=	c #8394BE",
"o=	c #8390AF",
"p=	c #3C4352",
"q=	c #888B8C",
"r=	c #E1E1DC",
"s=	c #999EAF",
"t=	c #818AA7",
"u=	c #647395",
"v=	c #8396BB",
"w=	c #8295BA",
"x=	c #7788AA",
"y=	c #67738F",
"z=	c #3D4356",
"A=	c #C4C7CF",
"B=	c #FAFFFF",
"C=	c #979FBE",
"D=	c #97A1C3",
"E=	c #7E8CA4",
"F=	c #A3AFD7",
"G=	c #A1AFD2",
"H=	c #96A1BC",
"I=	c #3F4554",
"J=	c #ADAFB3",
"K=	c #FCFCF7",
"L=	c #DCE0E8",
"M=	c #737B92",
"N=	c #808BAA",
"O=	c #8796B6",
"P=	c #A1B1D5",
"Q=	c #A1B0D5",
"R=	c #8C97B7",
"S=	c #6D748C",
"T=	c #5C606F",
"U=	c #F0F3F7",
"V=	c #FCFDF8",
"W=	c #FBFFFE",
"X=	c #949AB2",
"Y=	c #6F788F",
"Z=	c #5B6573",
"`=	c #636B86",
" -	c #656D88",
".-	c #5C6479",
"+-	c #3F4351",
"@-	c #A9ABB0",
"#-	c #FEFEF9",
"$-	c #9EA4B3",
"%-	c #6D748B",
"&-	c #57617B",
"*-	c #5F6A85",
"=-	c #606A85",
"--	c #5F687F",
";-	c #565E6F",
">-	c #454C57",
",-	c #92969C",
"'-	c #FDFEF6",
")-	c #FCFEFB",
"!-	c #9297A7",
"~-	c #4E5462",
"{-	c #4F5658",
"]-	c #505663",
"^-	c #4F5463",
"/-	c #4F5462",
"(-	c #555862",
"_-	c #BCBEC2",
":-	c #EDF0F5",
"<-	c #6B707D",
"[-	c #555B6A",
"}-	c #575D6C",
"|-	c #575D69",
"1-	c #565D69",
"2-	c #575E67",
"3-	c #575D64",
"4-	c #7B7F81",
"5-	c #E7E8E7",
"            . + + + @ # $ % & * = - ; > , ' ) ! ~ { ] ^ / ( _ : < [ } | 1 2 3 3 2   ",
"            . 4 5 4 6 7 8 9 0 a b b c c d e f g h i j k l m n o p   q r . . 2 3 2   ",
"    .         s t u v w w x x y x z A B C D E F G H I J K L M N O P   p Q   2 2 2 p ",
"      1 1   R S T U V W X Y Z l ` T  ...+.@.#.$.%.&.*.=.-.-.;.>.,.'.).!.~.{.1 1 .   ",
"      1   ].^./.(._.:.<.[.}.|.1.2.y 3.4.5.6.7.8.9.0.a.b.c.d.e.f.g.h.i.j.k.  l.m..   ",
"        n.o.p.q.r.s.t.u.v.w.x.c y.z.A.B.C.D.E.F.G.w H.I.J.K.L.M.N.K O.P.Q.R.  S.|   ",
". . p T.U.V.W.X.Y.Z.`. +.+++@+#+$+%+&+*+                  !.=+-+;+>+,+e.'+)+!+~+. . ",
"| {+]+D ^+/+(+_+:+<+[+z }+|+1+2+3+4+5+6+7+8+9+9+0+a+b+c+d+e+f+g+  h+i+j+k+l+m+n+$ o+",
"p+q+r+s+t+u+f.v+w+v+x+y+z+A+B+  C+D+E+F+G+H+I+J+K+L+M+N+O+P+Q+R+S+T+U+V+W+X+Y+Z+`++ ",
" @.@+@@@#@$@%@&@= *@=@-@;@>@# ,@'@)@!@~@{@]@^@/@(@_@:@<@[@}@|@1@2@3@4@5@6@7@8@9@0@a@",
"b@c@d@e@j f@g@h@Y i@j@  k@| l@g+m@n@o@p@q@r@s@t@u@v@w@x@y@z@A@B@C@D@E@F@G@H@I@J@K@L@",
"M@N@O@P@Q@R@S@T@U@V@W@X@Y@{.Z@`@ #.#+#@###$#%#&#*#=#-#;#>#,#'#)#!#~#{#]#^#  /#(#_#:#",
"<#[#}#|#1#2#3#4#5#6#7#8#l.9#0#g+a#b#c#d#e#f#g#h#i#j#k#l#m#n#o#p#q#r#s#t#u#    v#w#x#",
"y#z#A#B#C#D#E#F#G#H#{.l.l.I#J#K#L#M#N#O#P#Q#R#S#T#U#V#W#X#Y#Z#`# $.$+$@$#$  $$%$&$*$",
"! =$X.-$;$>$,$'$)$!$@     @ @ ~${$]$N#^$/$($_$:$      @   <$[$}$|$1$2$3$4$  o+  5$6$",
"7$8$9$d.0$a$b$c$d$e$@     @ @ ~${$]$N#f$g$h$i$j$  p } k$p+l$m$n$o$p$q$r$s$  t$  u$v$",
"w$c x$P.y$z$A$B$C$z$# . . o+@ ~${$]$N#f$D$E$F$G$  H$I$H$J$K$L$M$N$O$P$Q$R$  t$  S$T$",
"U$V$W$P.X$Y$Z$`$ %.%5 +%@%. @ ~${$]$N#f$#%$%%%&%*%=%-%;%>%,%'%)%!%~%{%]%^%  /%(%_%:%",
"<%[%}%|%x$1%2%3%4%H.5%6%| 7%~.~${$]$N#f$8%9%0%a%b%c%d%e%f%g%h%i%j%k%l%m%n%o%# p%q%r%",
"6%s%t%u%v%w%{ x%-+y%z%  A%o+@ ~${$]$N#^$B%C%D%E%F%G%H%I%J%K%L%M%N%O%P%Q%R%0#S%T%U%V%",
"Y@W%X%Y%u%t.Z%`% &.&+&@&  #&l.$&%&&&*&=&-&;&%#>&,&'&)&!&~&{&]&^&/&(&_&V%~.:&<&[&}&  ",
"q p+|&1&2&3&4&5&@@6&7&8&9&0&Y@a&b&&&*&=&c&d&e&f&g&h&i&j&k&l&m&n&o&p&q&o+r&s&t&u&    ",
"| {+  v&w&x&y&z&A&B&C&D&E&F&G&H&%&I&J&K&L&M&N&O&P&Q&R&S&T&U&V&W&X&Y&Z&`& *.*+*  .   ",
"1 . .   @*#*$*%*&***=*-*;*>*,*'*)*!**&K&~*{*]*^*    /*(*_*:*<*[*}*|*1*2*3*4*  5*.   ",
"2 2   1 {+6*7*8*9*0*&*a*b*c*d*e*f*g**&K&h*i*j*k*l*m*n*o*p*q*r*s*t*u*v*w*x*~.# p+p+y*",
"3 2 2 {+{+S.r z*A*B*C*D*E&E*F*G*H*g**&I*J*K*L*M*N*O*N@P*Q*R*S*T*U*V*W*X*Y@Y*s y*  p+",
"3 3 2 . A%l.l.`@7##&Z*`*@+ =.=+=@=#=$=I*%=&=*===-=;=>=,='=)=!=1$~={=]=^=/=J#(=~.  . ",
"    p     y*~.2         _=:=<=[=}=|=1=.$2=3=4=5=6=7=8=9=0=a=b=c=d=e=f=g=h=p+Y*i=o+  ",
"                    1 1         j=k=l=m=n=o=p=q=r=/#      s=t=u=v=w=x=y=z=A=  . .   ",
"                    . 1 1 [ 7#B=C=D=E=F=G=H=I=J=    1 K=  L=M=N=O=P=Q=R=S=T=U=p+. ~.",
"                  .   . . >@V=W=X=Y=Z=`= -.-+-@-    . #-o+  $-%-&-*-=---;->-,-  >@~.",
"                          I#'-)-!-~-{-]-^-/-(-_-  2 @ Y*    :-<-[-}-|-1-2-3-4-5-    "};
